/* XPM */
static char * emptywall_xpm[] = {
"16 16 2 1",
". c #808080",
"# c #A9A9A9",
"################",
"#..............#",
"#..............#",
"#..............#",
"#..............#",
"#..............#",
"#..............#",
"#..............#",
"#..............#",
"#..............#",
"#..............#",
"#..............#",
"#..............#",
"#..............#",
"#..............#",
"################"
};
