/* XPM */
static char * wallbluearcade_xpm[] = {
"16 16 2 1",
". c #0000FF",
"# c #1E90FF",
".#.#.#.#.#.#.#.#",
"#.#.#.#.#.#.#.#.",
".#.#.#.#.#.#.#.#",
"#.#.#.#.#.#.#.#.",
".#.#.#.#.#.#.#.#",
"#.#.#.#.#.#.#.#.",
".#.#.#.#.#.#.#.#",
"#.#.#.#.#.#.#.#.",
".#.#.#.#.#.#.#.#",
"#.#.#.#.#.#.#.#.",
".#.#.#.#.#.#.#.#",
"#.#.#.#.#.#.#.#.",
".#.#.#.#.#.#.#.#",
"#.#.#.#.#.#.#.#.",
".#.#.#.#.#.#.#.#",
"#.#.#.#.#.#.#.#."
};
